<svg width="36" height="36" viewBox="0 0 36 36" fill="none" xmlns="http://www.w3.org/2000/svg">
<path fill-rule="evenodd" clip-rule="evenodd" d="M2.38811 0.40363C2.19647 0.204812 1.88576 0.204812 1.69412 0.40363C1.50248 0.602447 1.50248 0.924794 1.69412 1.12361L17.3062 17.3203L0.389313 34.8762C0.197703 35.075 0.197703 35.3974 0.389313 35.5963C0.580923 35.7951 0.891584 35.7951 1.08319 35.5963L18.0002 18.0403L34.9172 35.5909C35.1089 35.7897 35.4196 35.7897 35.6112 35.5909C35.8029 35.3921 35.8029 35.0697 35.6112 34.8709L18.6941 17.3202L34.301 1.12387C34.4926 0.92502 34.4926 0.602625 34.301 0.403777C34.1093 0.20493 33.7987 0.20493 33.6071 0.403777L18.0001 16.6002L2.38811 0.40363Z" fill="#3C2708"/>
</svg>
