<svg width="24" height="25" viewBox="0 0 24 25" fill="none" xmlns="http://www.w3.org/2000/svg">
<path d="M23 12.5C23 18.5751 18.0751 23.5 12 23.5C5.92487 23.5 1 18.5751 1 12.5C1 6.42487 5.92487 1.5 12 1.5C18.0751 1.5 23 6.42487 23 12.5Z" fill="#DCDCDC"/>
<circle cx="12" cy="12.5" r="10" fill="#F2F0F2"/>
<mask id="mask0_2_1958" style="mask-type:alpha" maskUnits="userSpaceOnUse" x="2" y="2" width="20" height="21">
<circle cx="12" cy="12.5" r="10" fill="#FCFCFC"/>
</mask>
<g mask="url(#mask0_2_1958)">
<rect x="4.5332" y="20.7667" width="14.6667" height="2.66667" fill="#BB1834"/>
<rect x="4.5332" y="20.7667" width="14.6667" height="2.66667" fill="#BB1834"/>
<rect x="1.3335" y="15.4333" width="21.0667" height="2.66667" fill="#BB1834"/>
<rect x="1.3335" y="15.4333" width="21.0667" height="2.66667" fill="#BB1834"/>
<rect x="1.3335" y="9.83337" width="21.0667" height="2.66667" fill="#BB1834"/>
<rect x="1.3335" y="9.83337" width="21.0667" height="2.66667" fill="#BB1834"/>
<rect x="1.3335" y="4.5" width="21.0667" height="2.66667" fill="#BB1834"/>
<rect x="1.3335" y="4.5" width="21.0667" height="2.66667" fill="#BB1834"/>
<rect x="1.06689" y="1.83337" width="10.9333" height="10.6667" fill="#0052B5"/>
<path d="M9.86647 10.7667L9.06647 11.1667L9.33314 10.3667L8.7998 9.83333H9.5998L9.86647 9.03333L10.2665 9.83333H10.9331L10.3998 10.3667L10.6665 11.1667L9.86647 10.7667Z" fill="#EFEFEF"/>
<path d="M6.13356 10.7667L5.33356 11.1667L5.60023 10.3667L5.06689 9.83333H5.86689L6.13356 9.03333L6.53356 9.83333H7.20023L6.66689 10.3667L6.93356 11.1667L6.13356 10.7667Z" fill="#EFEFEF"/>
<path d="M2.40016 10.7667L1.60016 11.1667L1.86683 10.3667L1.3335 9.83333H2.1335L2.40016 9.03333L2.80016 9.83333H3.46683L2.9335 10.3667L3.20016 11.1667L2.40016 10.7667Z" fill="#EFEFEF"/>
<path d="M9.86647 7.83331L9.06647 8.23331L9.33314 7.43331L8.7998 6.89998H9.5998L9.86647 6.09998L10.2665 6.89998H10.9331L10.3998 7.43331L10.6665 8.23331L9.86647 7.83331Z" fill="#EFEFEF"/>
<path d="M9.86647 4.89996L9.06647 5.29996L9.33314 4.49996L8.7998 3.96663H9.5998L9.86647 3.16663L10.2665 3.96663H10.9331L10.3998 4.49996L10.6665 5.29996L9.86647 4.89996Z" fill="#EFEFEF"/>
<path d="M6.13356 4.89996L5.33356 5.29996L5.60023 4.49996L5.06689 3.96663H5.86689L6.13356 3.16663L6.53356 3.96663H7.20023L6.66689 4.49996L6.93356 5.29996L6.13356 4.89996Z" fill="#EFEFEF"/>
<path d="M6.13356 7.83331L5.33356 8.23331L5.60023 7.43331L5.06689 6.89998H5.86689L6.13356 6.09998L6.53356 6.89998H7.20023L6.66689 7.43331L6.93356 8.23331L6.13356 7.83331Z" fill="#EFEFEF"/>
<path d="M2.40016 7.83331L1.60016 8.23331L1.86683 7.43331L1.3335 6.89998H2.1335L2.40016 6.09998L2.80016 6.89998H3.46683L2.9335 7.43331L3.20016 8.23331L2.40016 7.83331Z" fill="#EFEFEF"/>
</g>
</svg>
